#!OML:ASF F:\VICON\USERDATA\INSTALL\rory3\rory3.ASF
:FULLY-SPECIFIED
:DEGREES
1207
root 8.0994 17.5119 -0.442066 -179.831 248.448 -170.67
lowerback 2.6663 -1.06448 -1.49755
upperback 2.42809 -1.50979 3.18621
thorax 1.12489 -0.825144 4.14506
lowerneck -9.36897 -1.92106 -11.7677
upperneck 40.1676 -2.05659 0.964593
head 16.0941 -3.00899 2.05236
rclavicle -2.34566e-014 -1.27222e-014
rhumerus -34.4423 -5.80526 -73.5012
rradius 40.5049
rwrist 17.147
rhand -21.237 3.83673
rfingers 7.12502
rthumb 5.14552 -26.0808
lclavicle -2.34566e-014 -1.27222e-014
lhumerus -34.2733 20.8229 75.7977
lradius 24.6992
lwrist -14.0912
lhand -10.3594 24.617
lfingers 7.12502
lthumb 15.6376 54.005
rfemur -5.92922 11.426 16.3074
rtibia 43.6649
rfoot -11.6579 4.49919
rtoes -0.717887
lfemur -32.1121 2.46221 -22.856
ltibia 22.2529
lfoot 0.55388 -7.78156
ltoes -12.4675
1208
root 8.01704 17.5192 -0.370065 -180.924 248.671 -169.511
lowerback 2.69252 -1.03782 -1.86193
upperback 2.41585 -1.47561 3.00845
thorax 1.09955 -0.809625 4.16705
lowerneck -9.26077 -1.87266 -11.7356
upperneck 40.1639 -1.98937 0.895181
head 16.0586 -2.98818 2.0272
rclavicle -1.98785e-014 4.77083e-015
rhumerus -34.5639 -5.53258 -73.6728
rradius 40.2321
rwrist 16.916
rhand -21.3752 3.90684
rfingers 7.12502
rthumb 5.01203 -26.0139
lclavicle -1.98785e-014 4.77083e-015
lhumerus -34.1601 20.4528 75.8775
lradius 24.7865
lwrist -13.3425
lhand -10.7366 24.5487
lfingers 7.12502
lthumb 15.2742 53.9648
rfemur -7.0287 11.819 15.7706
rtibia 46.0047
rfoot -10.0114 3.60686
rtoes -0.136081
lfemur -31.7398 2.75836 -23.4557
ltibia 22.3588
lfoot 0.451905 -8.07327
ltoes -11.7872
1209
root 7.93499 17.5253 -0.304566 -181.706 248.835 -168.762
lowerback 2.78666 -1.0552 -2.12624
upperback 2.40331 -1.50172 2.91752
thorax 1.04096 -0.823838 4.22495
lowerneck -9.14264 -1.78764 -11.8182
upperneck 40.2511 -1.85835 0.846579
head 16.0676 -2.96239 2.04064
rclavicle 6.79844e-014 3.49861e-014
rhumerus -34.7474 -4.92899 -73.9311
rradius 40.0847
rwrist 16.3065
rhand -21.5073 4.39437
rfingers 7.12502
rthumb 4.88451 -25.5293
lclavicle 6.79844e-014 3.49861e-014
lhumerus -34.1701 20.2054 75.901
lradius 24.9915
lwrist -13.1834
lhand -10.6778 24.6845
lfingers 7.12502
lthumb 15.3308 54.0962
rfemur -8.09182 12.3295 15.49
rtibia 48.3487
rfoot -8.55106 2.60093
rtoes 0.769092
lfemur -31.3332 3.24864 -23.9561
ltibia 22.446
lfoot 0.278515 -8.55694
ltoes -11.4482
1210
root 7.85619 17.53 -0.242256 -183.06 248.961 -167.35
lowerback 2.83379 -1.05238 -2.59034
upperback 2.4151 -1.50344 2.73568
thorax 1.03473 -0.828503 4.29997
lowerneck -9.15787 -1.75169 -11.8435
upperneck 40.2792 -1.76485 0.75663
head 16.0797 -2.94231 2.01946
rclavicle -6.75868e-015 1.59028e-015
rhumerus -34.8193 -4.48334 -74.2113
rradius 39.8679
rwrist 16.019
rhand -21.4123 5.11955
rfingers 7.12502
rthumb 4.9762 -24.802
lclavicle -6.75868e-015 1.59028e-015
lhumerus -33.9975 19.3989 76.1404
lradius 25.275
lwrist -12.4605
lhand -11.1079 24.7435
lfingers 7.12502
lthumb 14.9165 54.1864
rfemur -9.28067 12.7065 14.9389
rtibia 50.6741
rfoot -7.23302 1.77192
rtoes 1.24405
lfemur -30.9675 3.72104 -24.7203
ltibia 22.5006
lfoot 0.158237 -9.02598
ltoes -10.4048
1211
root 7.77694 17.5346 -0.183689 -184.3 249.016 -166.064
lowerback 2.87675 -1.06466 -3.00707
upperback 2.45216 -1.52522 2.52098
thorax 1.05669 -0.843463 4.31386
lowerneck -9.31958 -1.70851 -11.8163
upperneck 40.4003 -1.69339 0.7781
head 16.1761 -2.91312 2.03381
rclavicle 1.19271e-014 -3.18055e-015
rhumerus -34.846 -4.4008 -74.4039
rradius 39.6216
rwrist 16.6162
rhand -21.3168 4.5115
rfingers 7.12502
rthumb 5.06846 -25.4079
lclavicle 1.19271e-014 -3.18055e-015
lhumerus -33.7565 18.7573 76.2195
lradius 25.5369
lwrist -12.1171
lhand -11.0069 24.7298
lfingers 7.12502
lthumb 15.0138 54.1655
rfemur -10.4474 12.9762 14.4619
rtibia 52.9241
rfoot -6.21824 1.18048
rtoes 0.395025
lfemur -30.5838 4.11971 -25.4175
ltibia 22.5625
lfoot 0.0777751 -9.49493
ltoes -9.15464
1212
root 7.69836 17.5398 -0.131849 -185.375 249.01 -164.983
lowerback 2.95041 -1.10738 -3.46899
upperback 2.51179 -1.59124 2.36047
thorax 1.09264 -0.883259 4.41073
lowerneck -9.51414 -1.69587 -11.8721
upperneck 40.4793 -1.64871 0.828712
head 16.2639 -2.90082 2.07135
rclavicle 6.36111e-015 -1.27222e-014
rhumerus -34.8261 -4.76674 -74.5502
rradius 39.4049
rwrist 17.3086
rhand -21.0736 4.51516
rfingers 7.12502
rthumb 5.30325 -25.3985
lclavicle 6.36111e-015 -1.27222e-014
lhumerus -33.5938 18.9 75.9435
lradius 25.7563
lwrist -13.1583
lhand -9.93681 24.3034
lfingers 7.12502
lthumb 16.0445 53.6591
rfemur -11.5828 13.1789 14.1432
rtibia 55.0731
rfoot -5.59139 0.417292
rtoes -1.28963
lfemur -30.1805 4.47759 -26.0129
ltibia 22.581
lfoot -0.00803888 -9.8969
ltoes -8.17617
1213
root 7.61951 17.5493 -0.0776235 -186.182 248.893 -164.205
lowerback 2.98911 -1.21014 -3.75214
upperback 2.57847 -1.73369 2.20783
thorax 1.15881 -0.960058 4.41446
lowerneck -9.55549 -1.6495 -11.914
upperneck 40.4492 -1.5501 0.806453
head 16.2507 -2.86851 2.08405
rclavicle -1.19271e-015 -1.43125e-014
rhumerus -34.8515 -5.11237 -74.757
rradius 39.1933
rwrist 17.5568
rhand -20.9778 6.1477
rfingers 7.12502
rthumb 5.39575 -23.7636
lclavicle -1.19271e-015 -1.43125e-014
lhumerus -33.3813 17.9515 76.3771
lradius 26.2341
lwrist -11.3305
lhand -11.6943 24.6354
lfingers 7.12502
lthumb 14.3515 54.1194
rfemur -12.6704 13.0867 13.9292
rtibia 57.086
rfoot -5.26608 -0.270988
rtoes -4.36231
lfemur -29.7693 4.63393 -26.4764
ltibia 22.6428
lfoot -0.0797427 -10.1768
ltoes -7.19829
1214
root 7.54303 17.5583 -0.0267978 -186.779 248.742 -163.678
lowerback 3.1135 -1.2914 -3.97892
upperback 2.58627 -1.84985 2.12186
thorax 1.11453 -1.01984 4.45837
lowerneck -9.44105 -1.59438 -11.9586
upperneck 40.378 -1.43791 0.713481
head 16.177 -2.83893 2.06894
rclavicle -2.3059e-014 7.95139e-016
rhumerus -34.9817 -5.11605 -74.8511
rradius 39.0534
rwrist 18.0892
rhand -20.6014 6.97319
rfingers 7.12502
rthumb 5.7592 -22.9285
lclavicle -2.3059e-014 7.95139e-016
lhumerus -33.2961 17.183 76.7061
lradius 26.6661
lwrist -10.2189
lhand -12.5731 24.5339
lfingers 7.12502
lthumb 13.5047 54.076
rfemur -13.6774 13.0181 13.8126
rtibia 58.9618
rfoot -5.1215 -0.13302
rtoes -4.19327
lfemur -29.3875 4.91701 -26.9009
ltibia 22.772
lfoot -0.232283 -10.7003
ltoes -6.90876
1215
root 7.46746 17.5631 0.0173724 -186.953 248.559 -163.609
lowerback 3.20626 -1.3724 -4.09565
upperback 2.65767 -1.96416 2.07918
thorax 1.15146 -1.08135 4.48325
lowerneck -9.38158 -1.55282 -12.0127
upperneck 40.2765 -1.36342 0.71293
head 16.1034 -2.81024 2.09061
rclavicle -7.95139e-015 -2.38542e-015
rhumerus -35.0373 -5.0289 -74.9469
rradius 39.0336
rwrist 18.81
rhand -19.983 7.11505
rfingers 7.12502
rthumb 6.35621 -22.7696
lclavicle -7.95139e-015 -2.38542e-015
lhumerus -33.1071 16.3998 76.9776
lradius 27.1857
lwrist -9.33325
lhand -12.8858 24.4702
lfingers 7.12502
lthumb 13.2032 54.0321
rfemur -14.6883 12.9971 13.9038
rtibia 60.7095
rfoot -5.21453 0.802537
rtoes -1.81615
lfemur -29.0465 4.97096 -27.0523
ltibia 22.9578
lfoot -0.410226 -11.0026
ltoes -6.71819
1216
root 7.39446 17.5692 0.0636918 -186.765 248.442 -163.975
lowerback 3.33896 -1.4316 -4.01245
upperback 2.73833 -2.04717 2.05964
thorax 1.16546 -1.1242 4.41975
lowerneck -9.28857 -1.55175 -11.9819
upperneck 40.2027 -1.35216 0.630784
head 16.0406 -2.80811 2.05131
rclavicle -2.42517e-014 -3.18055e-015
rhumerus -35.0866 -4.66754 -75.1833
rradius 39.0715
rwrist 18.7581
rhand -19.9114 6.97728
rfingers 7.12502
rthumb 6.42535 -22.9053
lclavicle -2.42517e-014 -3.18055e-015
lhumerus -32.8518 15.6398 77.1501
lradius 27.667
lwrist -9.13445
lhand -12.6887 24.5721
lfingers 7.12502
lthumb 13.3933 54.1216
rfemur -15.6702 13.0356 14.1816
rtibia 62.3098
rfoot -5.4255 2.15788
rtoes -0.493746
lfemur -28.6704 4.96314 -26.9866
ltibia 23.1724
lfoot -0.656322 -11.2016
ltoes -6.30183
1217
root 7.31831 17.5753 0.110721 -186.872 248.236 -164.081
lowerback 3.479 -1.58388 -4.08939
upperback 2.85399 -2.25889 2.05211
thorax 1.23236 -1.23659 4.46114
lowerneck -9.28543 -1.51755 -12.0896
upperneck 40.1016 -1.26973 0.631555
head 15.9828 -2.78479 2.08333
rclavicle 4.77083e-014 -1.51076e-014
rhumerus -34.9155 -3.96798 -75.5322
rradius 38.9674
rwrist 18.4192
rhand -20.0739 6.77163
rfingers 7.12502
rthumb 6.26851 -23.1156
lclavicle 4.77083e-014 -1.51076e-014
lhumerus -32.6398 15.9151 76.838
lradius 28.1415
lwrist -10.8879
lhand -10.7921 24.8828
lfingers 7.12502
lthumb 15.2207 54.3029
rfemur -16.5384 12.7983 14.3293
rtibia 63.7596
rfoot -5.4465 3.9186
rtoes 0.454878
lfemur -28.2583 5.09289 -27.0933
ltibia 23.4689
lfoot -0.835783 -11.6308
ltoes -4.82702
1218
root 7.24353 17.5817 0.1563 -186.848 247.984 -164.264
lowerback 3.59356 -1.74943 -4.07963
upperback 2.92552 -2.48449 2.02395
thorax 1.26492 -1.35209 4.43246
lowerneck -9.31325 -1.4751 -12.1821
upperneck 40.0966 -1.19756 0.677677
head 15.9828 -2.76393 2.13045
rclavicle -2.66371e-014 1.43125e-014
rhumerus -34.8042 -3.64131 -75.8172
rradius 38.8236
rwrist 18.5157
rhand -20.2527 6.6005
rfingers 7.12502
rthumb 6.09587 -23.2918
lclavicle -2.66371e-014 1.43125e-014
lhumerus -32.3886 15.3775 77.0447
lradius 28.5954
lwrist -9.9561
lhand -11.8061 24.8803
lfingers 7.12502
lthumb 14.2438 54.3719
rfemur -17.5029 12.3186 14.4986
rtibia 65.068
rfoot -5.2693 5.5591
rtoes 0.0700126
lfemur -27.9147 4.91304 -27.0989
ltibia 23.8058
lfoot -1.18563 -11.8147
ltoes -4.44631
